<?xml version="1.0" encoding="UTF-8"?>
<!-- QR-URL:https://gauntlet.run/start/ -->
<svg xmlns="http://www.w3.org/2000/svg" viewBox="0 0 37 37" role="img" aria-label="QR code for https://gauntlet.run/start/" shape-rendering="crispEdges"><rect width="37" height="37" fill="#fff"/><path d="M4 4h7v1h-7zM12 4h1v1h-1zM14 4h1v1h-1zM17 4h2v1h-2zM20 4h1v1h-1zM26 4h7v1h-7zM4 5h1v1h-1zM10 5h1v1h-1zM13 5h1v1h-1zM16 5h4v1h-4zM23 5h1v1h-1zM26 5h1v1h-1zM32 5h1v1h-1zM4 6h1v1h-1zM6 6h3v1h-3zM10 6h1v1h-1zM13 6h1v1h-1zM16 6h1v1h-1zM18 6h1v1h-1zM21 6h1v1h-1zM23 6h1v1h-1zM26 6h1v1h-1zM28 6h3v1h-3zM32 6h1v1h-1zM4 7h1v1h-1zM6 7h3v1h-3zM10 7h1v1h-1zM12 7h1v1h-1zM15 7h2v1h-2zM22 7h1v1h-1zM24 7h1v1h-1zM26 7h1v1h-1zM28 7h3v1h-3zM32 7h1v1h-1zM4 8h1v1h-1zM6 8h3v1h-3zM10 8h1v1h-1zM12 8h5v1h-5zM22 8h1v1h-1zM26 8h1v1h-1zM28 8h3v1h-3zM32 8h1v1h-1zM4 9h1v1h-1zM10 9h1v1h-1zM12 9h1v1h-1zM15 9h2v1h-2zM20 9h1v1h-1zM22 9h2v1h-2zM26 9h1v1h-1zM32 9h1v1h-1zM4 10h7v1h-7zM12 10h1v1h-1zM14 10h1v1h-1zM16 10h1v1h-1zM18 10h1v1h-1zM20 10h1v1h-1zM22 10h1v1h-1zM24 10h1v1h-1zM26 10h7v1h-7zM12 11h2v1h-2zM17 11h1v1h-1zM19 11h6v1h-6zM4 12h1v1h-1zM8 12h1v1h-1zM10 12h4v1h-4zM16 12h2v1h-2zM21 12h1v1h-1zM24 12h6v1h-6zM32 12h1v1h-1zM5 13h1v1h-1zM7 13h3v1h-3zM11 13h4v1h-4zM17 13h2v1h-2zM20 13h1v1h-1zM24 13h9v1h-9zM8 14h1v1h-1zM10 14h1v1h-1zM13 14h1v1h-1zM15 14h2v1h-2zM20 14h1v1h-1zM26 14h3v1h-3zM32 14h1v1h-1zM4 15h5v1h-5zM11 15h1v1h-1zM13 15h2v1h-2zM16 15h1v1h-1zM18 15h1v1h-1zM21 15h1v1h-1zM23 15h4v1h-4zM28 15h2v1h-2zM31 15h2v1h-2zM4 16h1v1h-1zM7 16h2v1h-2zM10 16h1v1h-1zM12 16h10v1h-10zM24 16h2v1h-2zM31 16h1v1h-1zM4 17h1v1h-1zM6 17h2v1h-2zM13 17h1v1h-1zM16 17h1v1h-1zM26 17h7v1h-7zM4 18h2v1h-2zM9 18h2v1h-2zM12 18h3v1h-3zM17 18h3v1h-3zM21 18h2v1h-2zM24 18h1v1h-1zM29 18h2v1h-2zM32 18h1v1h-1zM4 19h1v1h-1zM8 19h1v1h-1zM11 19h3v1h-3zM15 19h1v1h-1zM17 19h1v1h-1zM19 19h3v1h-3zM24 19h3v1h-3zM31 19h2v1h-2zM4 20h2v1h-2zM7 20h7v1h-7zM15 20h3v1h-3zM21 20h3v1h-3zM25 20h1v1h-1zM27 20h1v1h-1zM31 20h1v1h-1zM4 21h1v1h-1zM6 21h1v1h-1zM14 21h2v1h-2zM17 21h2v1h-2zM20 21h3v1h-3zM26 21h4v1h-4zM31 21h2v1h-2zM7 22h1v1h-1zM10 22h1v1h-1zM13 22h2v1h-2zM16 22h1v1h-1zM20 22h1v1h-1zM22 22h1v1h-1zM26 22h1v1h-1zM30 22h1v1h-1zM32 22h1v1h-1zM6 23h3v1h-3zM13 23h3v1h-3zM18 23h1v1h-1zM21 23h3v1h-3zM26 23h2v1h-2zM31 23h2v1h-2zM4 24h5v1h-5zM10 24h2v1h-2zM16 24h5v1h-5zM22 24h8v1h-8zM32 24h1v1h-1zM12 25h1v1h-1zM15 25h1v1h-1zM21 25h2v1h-2zM24 25h1v1h-1zM28 25h1v1h-1zM32 25h1v1h-1zM4 26h7v1h-7zM12 26h3v1h-3zM17 26h3v1h-3zM22 26h3v1h-3zM26 26h1v1h-1zM28 26h3v1h-3zM32 26h1v1h-1zM4 27h1v1h-1zM10 27h1v1h-1zM13 27h2v1h-2zM16 27h2v1h-2zM19 27h2v1h-2zM23 27h2v1h-2zM28 27h1v1h-1zM4 28h1v1h-1zM6 28h3v1h-3zM10 28h1v1h-1zM12 28h3v1h-3zM16 28h2v1h-2zM23 28h7v1h-7zM32 28h1v1h-1zM4 29h1v1h-1zM6 29h3v1h-3zM10 29h1v1h-1zM14 29h3v1h-3zM18 29h1v1h-1zM20 29h1v1h-1zM22 29h2v1h-2zM25 29h1v1h-1zM31 29h1v1h-1zM4 30h1v1h-1zM6 30h3v1h-3zM10 30h1v1h-1zM13 30h1v1h-1zM20 30h2v1h-2zM23 30h2v1h-2zM29 30h4v1h-4zM4 31h1v1h-1zM10 31h1v1h-1zM13 31h1v1h-1zM15 31h4v1h-4zM21 31h2v1h-2zM24 31h1v1h-1zM26 31h1v1h-1zM28 31h2v1h-2zM31 31h2v1h-2zM4 32h7v1h-7zM12 32h2v1h-2zM18 32h3v1h-3zM22 32h3v1h-3zM27 32h3v1h-3zM31 32h1v1h-1z" fill="#000"/></svg>
