<?xml version="1.0" encoding="UTF-8"?>
<svg role="img" aria-labelledby="title desc" width="37mm" height="37mm" viewBox="0 0 41 41" xmlns="http://www.w3.org/2000/svg">
<title id="title">Gauntlet v0.6 Deckbuilder QR code</title>
<desc id="desc">Scan to open https://tymonius.github.io/Gauntlet/deckbuilder-v0.6/</desc>
<rect width="41" height="41" fill="#fff"/>
<path d="M4,4h7v1h-7zM12,4h4v1h-4zM18,4h1v1h-1zM20,4h2v1h-2zM23,4h3v1h-3zM27,4h1v1h-1zM30,4h7v1h-7zM4,5h1v1h-1zM10,5h1v1h-1zM12,5h2v1h-2zM18,5h1v1h-1zM20,5h1v1h-1zM22,5h1v1h-1zM24,5h1v1h-1zM26,5h2v1h-2zM30,5h1v1h-1zM36,5h1v1h-1zM4,6h1v1h-1zM6,6h3v1h-3zM10,6h1v1h-1zM13,6h6v1h-6zM20,6h1v1h-1zM22,6h2v1h-2zM26,6h3v1h-3zM30,6h1v1h-1zM32,6h3v1h-3zM36,6h1v1h-1zM4,7h1v1h-1zM6,7h3v1h-3zM10,7h1v1h-1zM12,7h5v1h-5zM19,7h1v1h-1zM22,7h2v1h-2zM26,7h3v1h-3zM30,7h1v1h-1zM32,7h3v1h-3zM36,7h1v1h-1zM4,8h1v1h-1zM6,8h3v1h-3zM10,8h1v1h-1zM13,8h2v1h-2zM20,8h2v1h-2zM23,8h3v1h-3zM28,8h1v1h-1zM30,8h1v1h-1zM32,8h3v1h-3zM36,8h1v1h-1zM4,9h1v1h-1zM10,9h1v1h-1zM13,9h1v1h-1zM16,9h5v1h-5zM22,9h2v1h-2zM26,9h1v1h-1zM30,9h1v1h-1zM36,9h1v1h-1zM4,10h7v1h-7zM12,10h1v1h-1zM14,10h1v1h-1zM16,10h1v1h-1zM18,10h1v1h-1zM20,10h1v1h-1zM22,10h1v1h-1zM24,10h1v1h-1zM26,10h1v1h-1zM28,10h1v1h-1zM30,10h7v1h-7zM12,11h2v1h-2zM16,11h1v1h-1zM19,11h5v1h-5zM26,11h3v1h-3zM4,12h1v1h-1zM6,12h2v1h-2zM9,12h3v1h-3zM18,12h6v1h-6zM25,12h1v1h-1zM27,12h1v1h-1zM30,12h1v1h-1zM33,12h1v1h-1zM35,12h2v1h-2zM5,13h5v1h-5zM11,13h1v1h-1zM13,13h1v1h-1zM15,13h3v1h-3zM20,13h8v1h-8zM30,13h2v1h-2zM33,13h2v1h-2zM36,13h1v1h-1zM5,14h4v1h-4zM10,14h4v1h-4zM15,14h3v1h-3zM20,14h1v1h-1zM22,14h1v1h-1zM24,14h1v1h-1zM26,14h3v1h-3zM30,14h4v1h-4zM35,14h2v1h-2zM6,15h4v1h-4zM11,15h4v1h-4zM16,15h1v1h-1zM19,15h1v1h-1zM21,15h1v1h-1zM23,15h2v1h-2zM27,15h2v1h-2zM30,15h2v1h-2zM33,15h1v1h-1zM35,15h1v1h-1zM4,16h2v1h-2zM8,16h1v1h-1zM10,16h4v1h-4zM15,16h1v1h-1zM18,16h3v1h-3zM24,16h1v1h-1zM26,16h4v1h-4zM31,16h3v1h-3zM35,16h2v1h-2zM5,17h3v1h-3zM9,17h1v1h-1zM11,17h5v1h-5zM18,17h1v1h-1zM21,17h1v1h-1zM23,17h2v1h-2zM26,17h1v1h-1zM28,17h1v1h-1zM31,17h1v1h-1zM35,17h1v1h-1zM4,18h2v1h-2zM8,18h3v1h-3zM14,18h1v1h-1zM21,18h1v1h-1zM23,18h1v1h-1zM28,18h1v1h-1zM30,18h4v1h-4zM5,19h1v1h-1zM7,19h2v1h-2zM13,19h3v1h-3zM18,19h2v1h-2zM22,19h5v1h-5zM28,19h3v1h-3zM33,19h2v1h-2zM8,20h4v1h-4zM13,20h2v1h-2zM16,20h3v1h-3zM23,20h1v1h-1zM25,20h2v1h-2zM29,20h2v1h-2zM32,20h1v1h-1zM34,20h1v1h-1zM5,21h1v1h-1zM11,21h1v1h-1zM24,21h1v1h-1zM27,21h2v1h-2zM30,21h1v1h-1zM32,21h2v1h-2zM35,21h2v1h-2zM4,22h2v1h-2zM7,22h4v1h-4zM13,22h1v1h-1zM15,22h1v1h-1zM18,22h3v1h-3zM22,22h1v1h-1zM24,22h1v1h-1zM30,22h3v1h-3zM34,22h2v1h-2zM5,23h2v1h-2zM9,23h1v1h-1zM11,23h2v1h-2zM14,23h4v1h-4zM19,23h4v1h-4zM24,23h1v1h-1zM27,23h3v1h-3zM32,23h1v1h-1zM36,23h1v1h-1zM4,24h2v1h-2zM9,24h3v1h-3zM13,24h1v1h-1zM18,24h3v1h-3zM25,24h3v1h-3zM33,24h2v1h-2zM4,25h1v1h-1zM11,25h1v1h-1zM14,25h1v1h-1zM17,25h1v1h-1zM19,25h3v1h-3zM23,25h1v1h-1zM25,25h1v1h-1zM27,25h1v1h-1zM30,25h1v1h-1zM33,25h2v1h-2zM36,25h1v1h-1zM7,26h2v1h-2zM10,26h1v1h-1zM15,26h3v1h-3zM19,26h1v1h-1zM22,26h1v1h-1zM24,26h2v1h-2zM27,26h4v1h-4zM33,26h1v1h-1zM35,26h2v1h-2zM5,27h1v1h-1zM7,27h1v1h-1zM9,27h1v1h-1zM12,27h2v1h-2zM18,27h2v1h-2zM23,27h1v1h-1zM28,27h2v1h-2zM31,27h2v1h-2zM4,28h1v1h-1zM9,28h2v1h-2zM12,28h3v1h-3zM16,28h3v1h-3zM21,28h1v1h-1zM28,28h5v1h-5zM35,28h1v1h-1zM12,29h1v1h-1zM14,29h2v1h-2zM17,29h3v1h-3zM23,29h1v1h-1zM25,29h1v1h-1zM27,29h2v1h-2zM32,29h2v1h-2zM35,29h1v1h-1zM4,30h7v1h-7zM12,30h1v1h-1zM14,30h3v1h-3zM21,30h4v1h-4zM27,30h2v1h-2zM30,30h1v1h-1zM32,30h1v1h-1zM4,31h1v1h-1zM10,31h1v1h-1zM12,31h2v1h-2zM16,31h1v1h-1zM18,31h1v1h-1zM20,31h9v1h-9zM32,31h3v1h-3zM36,31h1v1h-1zM4,32h1v1h-1zM6,32h3v1h-3zM10,32h1v1h-1zM13,32h1v1h-1zM16,32h1v1h-1zM19,32h4v1h-4zM25,32h8v1h-8zM34,32h2v1h-2zM4,33h1v1h-1zM6,33h3v1h-3zM10,33h1v1h-1zM12,33h4v1h-4zM18,33h1v1h-1zM20,33h2v1h-2zM25,33h1v1h-1zM27,33h1v1h-1zM31,33h1v1h-1zM33,33h2v1h-2zM36,33h1v1h-1zM4,34h1v1h-1zM6,34h3v1h-3zM10,34h1v1h-1zM12,34h3v1h-3zM16,34h1v1h-1zM19,34h2v1h-2zM22,34h1v1h-1zM26,34h1v1h-1zM29,34h3v1h-3zM33,34h1v1h-1zM4,35h1v1h-1zM10,35h1v1h-1zM13,35h1v1h-1zM16,35h2v1h-2zM21,35h3v1h-3zM28,35h1v1h-1zM30,35h3v1h-3zM36,35h1v1h-1zM4,36h7v1h-7zM12,36h3v1h-3zM17,36h2v1h-2zM20,36h4v1h-4zM25,36h1v1h-1zM27,36h1v1h-1zM29,36h2v1h-2zM32,36h1v1h-1zM34,36h1v1h-1z" fill="#000"/>
</svg>
